<?xml version="1.0" encoding="iso-8859-1"?>
<!-- Generator: Adobe Illustrator 17.0.0, SVG Export Plug-In . SVG Version: 6.00 Build 0)  -->
<!DOCTYPE svg PUBLIC "-//W3C//DTD SVG 1.1//EN" "http://www.w3.org/Graphics/SVG/1.1/DTD/svg11.dtd">
<svg version="1.1" xmlns="http://www.w3.org/2000/svg" xmlns:xlink="http://www.w3.org/1999/xlink" x="0px" y="0px" width="70px"
	 height="69.995px" viewBox="0 0 70 69.995" style="enable-background:new 0 0 70 69.995;" xml:space="preserve">
<g id="Layer_1">
	<g>
		<path style="fill:#FF8500;" d="M60.889,69.995H9.106C3.318,69.995,0,66.679,0,60.898V9.42C0,3.432,3.418,0,9.377,0v0.052
			C10.157-0.004,60.743,0,60.743,0C66.626,0,70,3.432,70,9.42v51.478C70,66.764,66.766,69.995,60.889,69.995z M9.377,3.963
			c-3.745,0-5.414,1.684-5.414,5.457v51.478c0,3.597,1.537,5.134,5.143,5.134h51.784c3.657,0,5.149-1.488,5.149-5.134V9.42
			c0-3.826-1.584-5.457-5.296-5.457H9.377z"/>
		<rect x="28" y="3" style="fill:#FF8500;" width="12" height="21"/>
		<polygon style="fill:#FF8500;" points="12,26 12,61 17,61 17,31 52,31 52,61 57,61 57,26 		"/>
		<path style="fill:#FF8500;" d="M31.921,52.223"/>
		<g>
			<rect x="27" y="55" style="fill:#FF8500;" width="12" height="5"/>
			<path style="fill:#FF8500;" d="M33.162,49.517c0.097,0.557,0.96,0.409,1.855,0.672c0.923,0.266,2.004,0.547,3.259,1.083
				c0.626,0.284,1.347,0.614,2.102,1.256c0.755,0.625,1.548,1.659,1.762,2.889c0.032,0.172,0.057,0.344,0.074,0.514l0.02,0.254
				c-0.001,0.05-0.007,0.063-0.011,0.097l-0.025,0.171l-0.013,0.085l-0.003,0.021l-0.002,0.011c0.003,0.097-0.009-0.202,0.007,0.22
				l-0.012,0.089c-0.063,0.468-0.179,0.943-0.389,1.376c-0.408,0.876-1.046,1.508-1.635,1.864c-1.198,0.706-2.164,0.735-2.96,0.74
				c-0.796-0.01-1.443-0.174-1.96-0.309c-0.258-0.066-0.484-0.139-0.679-0.223c-0.097-0.04-0.186-0.077-0.269-0.111l-0.117-0.051
				l-0.055-0.024l-0.027-0.012l-0.007-0.003l-0.015-0.002c0.202,0.137-0.423-0.128-0.06-0.433c0.08-0.016,0.032-0.002,0.054-0.004
				c0.151,0.061,0.227,0.106,0.33,0.179c0.033,0.068,0.05,0.103,0.05,0.103s-0.038-0.003-0.111-0.007
				c-0.022,0.031-0.138,0.09-0.237,0.155c0.015-0.002-0.046,0.013,0.049-0.003c0.365-0.305-0.259-0.569-0.054-0.433l-0.009-0.002
				l0.005-0.003l0.022-0.013l0.047-0.028l0.102-0.061c0.071-0.044,0.148-0.093,0.232-0.145c0.162-0.103,0.349-0.221,0.558-0.353
				c0.407-0.258,0.881-0.608,1.33-0.988c0.435-0.372,0.886-0.864,0.902-1.214c0.007-0.172-0.115-0.229-0.257-0.175
				c-0.068,0.026-0.128,0.062-0.174,0.086l-0.007,0.006c0.015,0.414,0.002,0.109,0.005,0.199l-0.003-0.01l-0.006-0.021l-0.025-0.082
				l-0.051-0.165c-0.008-0.023-0.017-0.066-0.026-0.072l-0.02,0.088c-0.01,0.06-0.012,0.122-0.008,0.182
				c-0.033,0.346,0.15,0.594,0.111,0.678c-0.037,0.091-0.234,0.04-0.558,0.023c-0.654-0.061-1.615-0.121-2.742-0.291
				c-1.145-0.185-2.45-0.385-4.157-1.316c-0.827-0.485-1.791-1.294-2.443-2.426c-0.671-1.12-0.867-2.403-0.837-3.38l0-0.049
				l0.033-0.518l0.01-0.048l0.019-0.097l0.038-0.193l0.083-0.409c0.178-0.67,0.491-1.453,0.799-1.937
				c0.272-0.379,0.566-0.791,0.854-1.095c0.279-0.279,0.585-0.549,0.872-0.784c1.136-0.87,2.14-1.286,3.051-1.669
				c0.924-0.361,1.707-0.6,2.442-0.828c0.689-0.219,1.349-0.407,1.828-0.608c0.52-0.199,0.92-0.405,1.238-0.677
				c0.266-0.279,0.534-0.566,0.645-0.84c0.14-0.25,0.214-0.383,0.214-0.383s0.076,0.133,0.218,0.383
				c0.072,0.121,0.144,0.275,0.204,0.498c0.057,0.212,0.167,0.498,0.146,0.793c0.016,0.607-0.12,1.423-0.499,2.166
				c-0.36,0.794-0.884,1.492-1.473,2.226c-0.576,0.685-1.251,1.38-1.865,2.013"/>
			<path style="fill:#FF8500;stroke:#FFFFFF;stroke-width:0.2;stroke-miterlimit:10;" d="M42.451,51.961
				c0.449,0.425,0.915,0.686,1.015,0.773c0.374,0.312,0.784,0.687,1.211,1.169c0.419,0.491,0.885,1.07,1.233,2.021
				c0.108,0.309,0.203,0.684,0.248,1.023l-0.004,0.204l-0.003,0.096l-0.002,0.048l-0.001,0.024l0,0.012l0.012,0.254l-0.001,0.012
				c-0.044,0.522-0.168,1.039-0.395,1.493c-0.443,0.92-1.128,1.468-1.712,1.792c-0.599,0.329-1.15,0.457-1.643,0.528
				c-0.99,0.12-1.756-0.031-2.291-0.182c-0.268-0.062-0.476-0.171-0.612-0.227c-0.138-0.061-0.212-0.093-0.212-0.093
				s0.054-0.06,0.155-0.172c0.147-0.145,1.351-1.502,1.695-1.929s0.75-0.818-0.154-1.337c-1.167-0.735-2.745-3.145-2.626-5.325
				c-0.017,0.112,0.011-0.154,0.079-0.545s0.42-0.792,0.724-1.024c0.154-0.101,0.243-0.167,0.402-0.236
				c0.157-0.075,0.285-0.127,0.415-0.163c0.26-0.076,0.485-0.132,0.707-0.171c0.882-0.143,1.606-0.136,2.137-0.115
				c0.257-0.002,0.482,0.039,0.627,0.041c0.149,0.001,0.228,0.002,0.228,0.002s-0.085,0.338-0.354,0.82L42.451,51.961z"/>
			<path style="fill:#FF8500;stroke:#FFFFFF;stroke-width:0.2;stroke-miterlimit:10;" d="M35.593,59.969c0,0-0.064-0.07-0.183-0.201
				c-0.164-0.06-0.248,0.013-0.499,0.09c-0.25,0.112-0.554,0.249-0.902,0.405c-0.201,0.083-0.368,0.162-0.671,0.242
				c-0.225,0.069-0.461,0.141-0.708,0.217c-0.516,0.125-0.972,0.303-1.642,0.353c-0.659,0.037-1.338,0.15-2.116,0.023
				c-0.395-0.054-0.752-0.06-1.194-0.206c-0.446-0.157-0.88-0.266-1.337-0.535c-0.453-0.326-0.968-0.567-1.328-1.063
				c-0.192-0.227-0.378-0.464-0.552-0.705c-0.134-0.235-0.252-0.474-0.37-0.717c-0.258-0.526-0.297-0.882-0.436-1.324
				c-0.093-0.37-0.13-0.722-0.186-1.048c-0.09-0.608-0.141-1.123-0.204-1.598c-0.037-0.228-0.088-0.449-0.107-0.687
				c-0.051-0.218-0.117-0.427-0.158-0.652c-0.088-0.447-0.284-0.848-0.395-1.285c-0.184-0.398-0.355-0.792-0.504-1.168
				c-0.159-0.367-0.336-0.681-0.466-0.962c-0.27-0.553-0.413-0.935-0.413-0.935s0.377,0.009,1.016,0.139
				c0.313,0.076,0.728,0.129,1.146,0.304c0.417,0.179,0.889,0.407,1.398,0.694c0.451,0.357,1.002,0.726,1.451,1.26
				c0.23,0.264,0.45,0.552,0.677,0.85c0.198,0.308,0.369,0.643,0.557,0.981c0.324,0.68,0.585,1.387,0.758,2.032l0.245,0.835
				c0.073,0.168,0.132,0.469,0.196,0.514c0.023,0.05,0.038,0.109,0.052,0.161c0.027,0.014,0.043,0.031,0.052,0.058
				c-0.016,0.071,0.108,0.091,0.13,0.186c0.077,0.077,0.264,0.154,0.382,0.268c0.131,0.11,0.403,0.169,0.592,0.282
				c0.395,0.225,0.91,0.342,1.355,0.544c0.439,0.201,1.045,0.328,1.501,0.509c0.241,0.091,0.472,0.178,0.691,0.261
				c0.142,0.091,0.396,0.156,0.591,0.244c0.405,0.154,0.812,0.344,1.139,0.56c0.333,0.162,0.571,0.615,0.539,0.816
				C35.627,59.879,35.593,59.969,35.593,59.969z"/>
		</g>
	</g>
	<path style="fill:#FF8500;" d="M116.921,52.223"/>
</g>
<g id="Layer_2">
</g>
<g id="Layer_3">
</g>
<g id="Layer_4">
</g>
</svg>
