<?xml version="1.0" encoding="iso-8859-1"?>
<!-- Generator: Adobe Illustrator 17.0.0, SVG Export Plug-In . SVG Version: 6.00 Build 0)  -->
<!DOCTYPE svg PUBLIC "-//W3C//DTD SVG 1.1//EN" "http://www.w3.org/Graphics/SVG/1.1/DTD/svg11.dtd">
<svg version="1.1" xmlns="http://www.w3.org/2000/svg" xmlns:xlink="http://www.w3.org/1999/xlink" x="0px" y="0px" width="70px"
	 height="69.995px" viewBox="0 0 70 69.995" style="enable-background:new 0 0 70 69.995;" xml:space="preserve">
<g id="Layer_1">
	<path style="fill:#FF8500;" d="M594.921-35.777"/>
	<g>
		<path style="fill:#FF8500;" d="M60.889,69.995H9.106C3.318,69.995,0,66.679,0,60.898V9.42C0,3.432,3.418,0,9.377,0v0.052
			C10.157-0.004,60.743,0,60.743,0C66.626,0,70,3.432,70,9.42v51.478C70,66.764,66.766,69.995,60.889,69.995z M9.377,3.963
			c-3.745,0-5.414,1.684-5.414,5.457v51.478c0,3.597,1.537,5.134,5.143,5.134h51.784c3.657,0,5.149-1.488,5.149-5.134V9.42
			c0-3.826-1.584-5.457-5.296-5.457H9.377z"/>
		<g>
			<path style="fill:#FF8500;" d="M46,17.014V9H24v8.159C17,19.195,12.696,23,11.533,27h46.934C57.276,23,52,19.014,46,17.014z
				 M43,16.263c-3-0.495-5.041-0.768-7.759-0.768c-2.898,0-6.241,0.307-8.241,0.866V12h16V16.263z"/>
			<path style="fill:#FF8500;" d="M58.55,31H11.45c1.189,6,7.514,9.905,15.957,11.585l-8.794,15.933
				c-0.402,0.725-0.141,1.679,0.584,2.08c0.23,0.128,0.48,0.209,0.726,0.209c0.527,0,1.039-0.268,1.313-0.762l9.443-16.801
				c0.722,0.081,1.32,0.147,2.32,0.188v15.895c0,0.828,0.671,1.5,1.5,1.5s1.5-0.672,1.5-1.5V43.474c1-0.017,1.665-0.064,2.537-0.138
				L48.533,60.1c0.281,0.469,0.748,0.729,1.257,0.729c0.263,0,0.514-0.068,0.755-0.214c0.71-0.426,0.933-1.348,0.507-2.058
				l-9.377-15.79C50.581,41.233,57.318,37,58.55,31z"/>
		</g>
	</g>
</g>
<g id="Layer_2">
</g>
<g id="Layer_3">
</g>
<g id="Layer_4">
</g>
</svg>
