<?xml version="1.0" encoding="iso-8859-1"?>
<!-- Generator: Adobe Illustrator 17.0.0, SVG Export Plug-In . SVG Version: 6.00 Build 0)  -->
<!DOCTYPE svg PUBLIC "-//W3C//DTD SVG 1.1//EN" "http://www.w3.org/Graphics/SVG/1.1/DTD/svg11.dtd">
<svg version="1.1" xmlns="http://www.w3.org/2000/svg" xmlns:xlink="http://www.w3.org/1999/xlink" x="0px" y="0px" width="70px"
	 height="69.995px" viewBox="0 0 70 69.995" style="enable-background:new 0 0 70 69.995;" xml:space="preserve">
<g id="Layer_1">
	<path style="fill:#FF8500;" d="M31.921,52.223"/>
	<g>
		<path style="fill:#FF8500;" d="M60.889,69.995H9.106C3.318,69.995,0,66.679,0,60.898V9.42C0,3.432,3.418,0,9.377,0v0.052
			C10.157-0.004,60.743,0,60.743,0C66.626,0,70,3.432,70,9.42v51.478C70,66.764,66.766,69.995,60.889,69.995z M9.377,3.963
			c-3.745,0-5.414,1.684-5.414,5.457v51.478c0,3.597,1.537,5.134,5.143,5.134h51.784c3.657,0,5.149-1.488,5.149-5.134V9.42
			c0-3.826-1.584-5.457-5.296-5.457H9.377z"/>
		<g>
			<path style="fill:#FF8500;" d="M57.827,30.614c0,1.793-0.077,3.596,0.019,5.389c0.123,2.279-0.472,4.536-1.158,6.535
				c-0.709,2.063-0.344,3.687,0.464,5.272c0.428,0.84,0.769,1.515,0.585,2.585c-1.187,0-2.406,0-3.562,0
				c-1.37-1.179-1.038-3.037-2.062-4.409c-9.348,0-18.767,0-28.205,0c-0.945,0.613-1.292,1.506-1.071,2.622
				c-0.649,0.649-1.29,1.29-1.94,1.94c-0.765,0-1.54,0-2.322,0c-0.353-0.222-0.34-0.592-0.427-0.963
				c-0.4-1.702,1.532-2.993,0.464-5.124c-3.033-3.572-5.759-9.418-5.893-12.936c-0.75-0.966-1.616-1.659-2.8-1.127
				c-0.46-0.867-0.312-1.485-0.202-2.247c17.014,0,34.038,0,51.142,0c0,0.692,0,1.302,0,1.888
				C60.009,30.678,59.068,30.08,57.827,30.614z M54.833,40.192c2.165-3.499,1.315-6.701,1.32-9.92
				c-0.877,0.2-1.552-0.199-2.413,0.639C55.275,33.45,54.521,36.471,54.833,40.192z"/>
			<path style="fill:#FF8500;" d="M21.256,24.138c2.203,0,3.335,0,4.358,0c0.537,0.709,0.256,1.353,0.294,2.138
				c-4.077,0-8.147,0-12.197,0c-0.756-0.956,0.386-1.312,0.567-1.96c0.265-0.873-1.063-1.114-0.789-2.014
				c0.105-0.345,0.08-0.729,0.123-1.193c0.815,0,1.564,0,2.327,0c3.611-3.469,7.932-5.159,12.668-5.61
				c0.721,0.715,0.307,1.401,0.474,2.113c-2.971,0.551-5.887,1.293-8.557,2.784c0.468,1.146,1.401,0.305,2.041,0.713
				C23.112,22.087,23.138,23.003,21.256,24.138z"/>
		</g>
	</g>
</g>
<g id="Layer_2">
</g>
<g id="Layer_3">
</g>
<g id="Layer_4">
</g>
</svg>
