<?xml version="1.0" encoding="iso-8859-1"?>
<!-- Generator: Adobe Illustrator 17.0.0, SVG Export Plug-In . SVG Version: 6.00 Build 0)  -->
<!DOCTYPE svg PUBLIC "-//W3C//DTD SVG 1.1//EN" "http://www.w3.org/Graphics/SVG/1.1/DTD/svg11.dtd">
<svg version="1.1" xmlns="http://www.w3.org/2000/svg" xmlns:xlink="http://www.w3.org/1999/xlink" x="0px" y="0px" width="70px"
	 height="69.995px" viewBox="0 0 70 69.995" style="enable-background:new 0 0 70 69.995;" xml:space="preserve">
<g id="Layer_1">
	<g>
		<path style="fill:#FF8500;" d="M60.889,69.995H9.106C3.318,69.995,0,66.679,0,60.898V9.42C0,3.432,3.418,0,9.377,0v0.052
			C10.157-0.004,60.743,0,60.743,0C66.626,0,70,3.432,70,9.42v51.478C70,66.764,66.766,69.995,60.889,69.995z M9.377,3.963
			c-3.745,0-5.414,1.684-5.414,5.457v51.478c0,3.597,1.537,5.134,5.143,5.134h51.784c3.657,0,5.149-1.488,5.149-5.134V9.42
			c0-3.826-1.584-5.457-5.296-5.457H9.377z"/>
		<path style="fill:#FF8500;" d="M58.009,11h-47C10.457,11,10,11.468,10,12.02V46h49V12.02C59,11.468,58.561,11,58.009,11z M57,43
			h-5v-2h5V43z M57,39H12V13h45V39z"/>
		<g>
			<path style="fill:#FF8500;" d="M12.916,59.421c0.488,0,1.073-0.12,1.753-0.361v2.645c-0.489,0.21-0.954,0.36-1.396,0.449
				c-0.442,0.09-0.96,0.135-1.554,0.135c-1.219,0-2.097-0.298-2.635-0.896c-0.538-0.597-0.807-1.514-0.807-2.751V54.31H7.006v-1.475
				l1.614-1.142l0.937-2.208h2.375v2.105h2.579v2.719h-2.579v4.092C11.932,59.082,12.26,59.421,12.916,59.421z"/>
			<path style="fill:#FF8500;" d="M19.261,62.103l-4.008-10.512h3.785l1.781,6.217c0.006,0.03,0.019,0.083,0.037,0.157
				s0.037,0.162,0.056,0.265c0.019,0.102,0.036,0.21,0.051,0.324c0.016,0.115,0.023,0.222,0.023,0.32h0.065
				c0-0.321,0.056-0.671,0.167-1.049l1.865-6.234h3.776l-4.008,10.512H19.261z"/>
			<path style="fill:#FF8500;" d="M41.165,58.874c0,1.126-0.384,1.977-1.15,2.551c-0.767,0.576-1.868,0.863-3.303,0.863
				c-0.779,0-1.457-0.042-2.032-0.125c-0.575-0.084-1.163-0.236-1.763-0.459V58.8c0.562,0.247,1.18,0.451,1.851,0.612
				c0.671,0.161,1.269,0.241,1.795,0.241c0.785,0,1.178-0.18,1.178-0.538c0-0.186-0.11-0.351-0.33-0.496
				c-0.219-0.146-0.858-0.429-1.916-0.849c-0.965-0.396-1.639-0.846-2.022-1.351c-0.384-0.504-0.575-1.143-0.575-1.915
				c0-0.978,0.377-1.738,1.132-2.283c0.754-0.544,1.821-0.816,3.201-0.816c0.692,0,1.344,0.076,1.953,0.228
				c0.609,0.152,1.241,0.373,1.897,0.663l-0.983,2.338c-0.482-0.216-0.993-0.399-1.531-0.552c-0.538-0.151-0.978-0.228-1.317-0.228
				c-0.594,0-0.891,0.146-0.891,0.437c0,0.18,0.104,0.333,0.311,0.459c0.208,0.127,0.806,0.386,1.795,0.774
				c0.736,0.304,1.285,0.601,1.647,0.891c0.361,0.291,0.627,0.633,0.798,1.025C41.08,57.834,41.165,58.312,41.165,58.874z"/>
			<path style="fill:#FF8500;" d="M50.034,62.103l-0.696-1.392h-0.074c-0.489,0.606-0.987,1.021-1.494,1.243
				c-0.507,0.223-1.163,0.334-1.967,0.334c-0.99,0-1.769-0.297-2.338-0.891c-0.569-0.594-0.854-1.429-0.854-2.505
				c0-1.119,0.39-1.953,1.169-2.5c0.779-0.548,1.908-0.855,3.386-0.923l1.753-0.057v-0.148c0-0.865-0.427-1.299-1.28-1.299
				c-0.767,0-1.741,0.26-2.922,0.779l-1.048-2.393c1.225-0.631,2.771-0.947,4.639-0.947c1.348,0,2.392,0.334,3.131,1.002
				c0.739,0.668,1.109,1.603,1.109,2.803v6.893H50.034z M47.344,59.728c0.439,0,0.815-0.139,1.127-0.418
				c0.312-0.277,0.469-0.64,0.469-1.085v-0.816l-0.835,0.037c-1.194,0.043-1.791,0.482-1.791,1.317
				C46.314,59.407,46.657,59.728,47.344,59.728z"/>
			<path style="fill:#FF8500;" d="M60.165,59.421c0.488,0,1.073-0.12,1.753-0.361v2.645c-0.489,0.21-0.954,0.36-1.396,0.449
				c-0.442,0.09-0.96,0.135-1.554,0.135c-1.219,0-2.097-0.298-2.635-0.896c-0.538-0.597-0.807-1.514-0.807-2.751V54.31h-1.271
				v-1.475l1.614-1.142l0.937-2.208h2.375v2.105h2.579v2.719h-2.579v4.092C59.182,59.082,59.509,59.421,60.165,59.421z"/>
		</g>
	</g>
	<path style="fill:#FF8500;" d="M600.921,52.223"/>
</g>
<g id="Layer_2">
</g>
<g id="Layer_3">
</g>
<g id="Layer_4">
</g>
</svg>
