<?xml version="1.0" encoding="iso-8859-1"?>
<!-- Generator: Adobe Illustrator 17.0.0, SVG Export Plug-In . SVG Version: 6.00 Build 0)  -->
<!DOCTYPE svg PUBLIC "-//W3C//DTD SVG 1.1//EN" "http://www.w3.org/Graphics/SVG/1.1/DTD/svg11.dtd">
<svg version="1.1" xmlns="http://www.w3.org/2000/svg" xmlns:xlink="http://www.w3.org/1999/xlink" x="0px" y="0px" width="70px"
	 height="69.995px" viewBox="0 0 70 69.995" style="enable-background:new 0 0 70 69.995;" xml:space="preserve">
<g id="Layer_1">
	<g>
		<path style="fill:#FF8500;" d="M60.889,69.995H9.106C3.318,69.995,0,66.679,0,60.898V9.42C0,3.432,3.418,0,9.377,0v0.052
			C10.157-0.004,60.743,0,60.743,0C66.626,0,70,3.432,70,9.42v51.478C70,66.764,66.766,69.995,60.889,69.995z M9.377,3.963
			c-3.745,0-5.414,1.684-5.414,5.457v51.478c0,3.597,1.537,5.134,5.143,5.134h51.784c3.657,0,5.149-1.488,5.149-5.134V9.42
			c0-3.826-1.584-5.457-5.296-5.457H9.377z"/>
		<g>
			<path style="fill:#FF8500;" d="M17.899,62.331c-0.749,0-1.402-0.213-1.962-0.641c-0.56-0.426-0.992-1.054-1.299-1.883
				c-0.306-0.829-0.459-1.797-0.459-2.904c0-1.707,0.343-3.043,1.03-4.008s1.629-1.447,2.83-1.447c0.587,0,1.103,0.118,1.545,0.354
				c0.442,0.234,0.845,0.631,1.21,1.188h0.074c-0.118-0.823-0.176-1.646-0.176-2.469v-2.811h3.655v14.436H21.61l-0.779-1.326h-0.139
				C20.067,61.827,19.136,62.331,17.899,62.331z M19.384,59.463c0.581,0,0.991-0.182,1.229-0.547
				c0.238-0.365,0.367-0.928,0.385-1.688V56.94c0-0.928-0.133-1.587-0.399-1.98c-0.266-0.393-0.684-0.589-1.252-0.589
				c-0.477,0-0.846,0.225-1.109,0.673c-0.263,0.448-0.394,1.087-0.394,1.916c0,0.816,0.133,1.438,0.399,1.864
				C18.508,59.25,18.888,59.463,19.384,59.463z"/>
			<path style="fill:#FF8500;" d="M26.778,49.018c0-0.545,0.151-0.95,0.455-1.216c0.303-0.266,0.792-0.399,1.466-0.399
				c0.674,0,1.166,0.137,1.475,0.408c0.309,0.272,0.464,0.675,0.464,1.207c0,1.063-0.646,1.596-1.939,1.596
				C27.418,50.614,26.778,50.082,26.778,49.018z M30.498,62.145H26.87V51.633h3.627V62.145z"/>
			<path style="fill:#FF8500;" d="M41.148,58.916c0,1.126-0.384,1.977-1.15,2.551c-0.767,0.576-1.868,0.863-3.303,0.863
				c-0.779,0-1.457-0.042-2.032-0.125c-0.575-0.084-1.163-0.236-1.763-0.459v-2.904c0.562,0.247,1.18,0.451,1.851,0.612
				c0.671,0.161,1.269,0.241,1.795,0.241c0.785,0,1.178-0.18,1.178-0.538c0-0.186-0.11-0.351-0.33-0.496
				c-0.219-0.146-0.858-0.429-1.916-0.849c-0.965-0.396-1.639-0.846-2.022-1.351c-0.384-0.504-0.575-1.143-0.575-1.915
				c0-0.978,0.377-1.738,1.132-2.283c0.754-0.544,1.821-0.816,3.201-0.816c0.692,0,1.344,0.076,1.953,0.228
				c0.609,0.152,1.241,0.373,1.897,0.663l-0.983,2.338c-0.482-0.216-0.993-0.399-1.531-0.552c-0.538-0.151-0.978-0.228-1.317-0.228
				c-0.594,0-0.891,0.146-0.891,0.437c0,0.18,0.104,0.333,0.311,0.459c0.208,0.127,0.806,0.386,1.795,0.774
				c0.736,0.304,1.285,0.601,1.647,0.891c0.361,0.291,0.627,0.633,0.798,1.025C41.063,57.876,41.148,58.354,41.148,58.916z"/>
			<path style="fill:#FF8500;" d="M49.776,62.145v-5.733c0-1.41-0.417-2.115-1.252-2.115c-0.594,0-1.031,0.249-1.313,0.747
				c-0.281,0.498-0.422,1.325-0.422,2.481v4.62h-3.627V47.709h3.627v2.051c0,0.928-0.05,1.984-0.148,3.172h0.167
				c0.346-0.544,0.757-0.928,1.234-1.15c0.476-0.223,1.03-0.334,1.661-0.334c1.175,0,2.089,0.339,2.741,1.017
				c0.653,0.677,0.979,1.625,0.979,2.843v6.838H49.776z"/>
		</g>
		<g>
			<g>
				<line style="fill:#FF8500;" x1="12" y1="8" x2="59" y2="8"/>
			</g>
			<g>
				<path style="fill:#FF8500;" d="M59.009,9h-47c-0.829,0-1.5-0.671-1.5-1.5S11.18,6,12.009,6h47c0.828,0,1.5,0.671,1.5,1.5
					S59.837,9,59.009,9z"/>
			</g>
		</g>
		<g>
			<g>
				<g>
					<path style="fill:#FF8500;" d="M35,22.02c-0.552,0-1-0.447-1-1v-1c0-0.553,0.448-1,1-1s1,0.447,1,1v1
						C36,21.573,35.552,22.02,35,22.02z"/>
				</g>
				<g>
					<path style="fill:#FF8500;" d="M35,17.02c-0.552,0-1-0.447-1-1v-1c0-0.553,0.448-1,1-1s1,0.447,1,1v1
						C36,16.573,35.552,17.02,35,17.02z"/>
				</g>
				<g>
					<path style="fill:#FF8500;" d="M35,12.02c-0.552,0-1-0.447-1-1v-1c0-0.552,0.448-1,1-1s1,0.448,1,1v1
						C36,11.573,35.552,12.02,35,12.02z"/>
				</g>
			</g>
			<g>
				<g>
					<path style="fill:#FF8500;" d="M25.842,21.353c-0.127,0-0.256-0.024-0.381-0.075c-0.511-0.211-0.754-0.796-0.543-1.307
						l0.381-0.924c0.21-0.51,0.797-0.751,1.306-0.543c0.511,0.211,0.754,0.796,0.543,1.307l-0.381,0.924
						C26.608,21.121,26.235,21.353,25.842,21.353z"/>
				</g>
				<g>
					<path style="fill:#FF8500;" d="M27.754,16.721c-0.127,0-0.256-0.024-0.381-0.075c-0.51-0.211-0.754-0.795-0.543-1.306
						l0.51-1.236c0.21-0.511,0.795-0.751,1.306-0.544c0.51,0.211,0.754,0.795,0.543,1.306l-0.51,1.236
						C28.52,16.488,28.147,16.721,27.754,16.721z"/>
				</g>
				<g>
					<path style="fill:#FF8500;" d="M29.794,11.778c-0.127,0-0.256-0.024-0.381-0.075c-0.511-0.211-0.754-0.795-0.543-1.306
						l0.381-0.924c0.21-0.51,0.795-0.754,1.306-0.543c0.511,0.21,0.754,0.795,0.543,1.306l-0.381,0.925
						C30.559,11.545,30.187,11.778,29.794,11.778z"/>
				</g>
			</g>
			<g>
				<g>
					<path style="fill:#FF8500;" d="M12.342,29.353c-0.194,0-0.39-0.057-0.562-0.174c-0.457-0.311-0.574-0.933-0.263-1.39
						l0.563-0.826c0.31-0.456,0.932-0.573,1.389-0.263c0.457,0.311,0.574,0.933,0.263,1.39l-0.563,0.826
						C12.975,29.201,12.661,29.353,12.342,29.353z"/>
				</g>
				<g>
					<path style="fill:#FF8500;" d="M15.312,24.991c-0.194,0-0.39-0.056-0.562-0.174c-0.457-0.311-0.574-0.933-0.264-1.389
						l0.803-1.179c0.311-0.456,0.932-0.577,1.39-0.264c0.457,0.311,0.574,0.933,0.264,1.389l-0.803,1.179
						C15.946,24.837,15.632,24.991,15.312,24.991z"/>
				</g>
				<g>
					<path style="fill:#FF8500;" d="M18.523,20.276c-0.194,0-0.39-0.056-0.562-0.174c-0.457-0.311-0.574-0.933-0.264-1.389
						l0.803-1.179c0.312-0.456,0.933-0.577,1.39-0.264c0.457,0.311,0.574,0.933,0.264,1.389l-0.803,1.179
						C19.157,20.123,18.843,20.276,18.523,20.276z M21.734,15.561c-0.194,0-0.39-0.056-0.562-0.174
						c-0.457-0.311-0.574-0.933-0.264-1.389l0.803-1.179c0.312-0.456,0.933-0.577,1.39-0.264c0.457,0.311,0.574,0.933,0.264,1.389
						l-0.803,1.179C22.368,15.408,22.054,15.561,21.734,15.561z"/>
				</g>
				<g>
					<path style="fill:#FF8500;" d="M24.945,10.847c-0.194,0-0.39-0.056-0.562-0.173c-0.457-0.311-0.574-0.933-0.264-1.39
						l0.563-0.827c0.312-0.457,0.933-0.575,1.39-0.264c0.457,0.311,0.574,0.933,0.264,1.39l-0.563,0.827
						C25.579,10.694,25.265,10.847,24.945,10.847z"/>
				</g>
			</g>
			<g>
				<g>
					<path style="fill:#FF8500;" d="M43.676,21.353c-0.393,0-0.766-0.232-0.925-0.618l-0.381-0.924
						c-0.211-0.511,0.032-1.096,0.543-1.307c0.509-0.209,1.095,0.032,1.306,0.543l0.381,0.924c0.211,0.511-0.032,1.096-0.543,1.307
						C43.932,21.329,43.803,21.353,43.676,21.353z"/>
				</g>
				<g>
					<path style="fill:#FF8500;" d="M41.764,16.721c-0.393,0-0.766-0.233-0.925-0.619l-0.51-1.236
						c-0.211-0.511,0.033-1.095,0.543-1.306c0.511-0.208,1.096,0.033,1.306,0.544l0.51,1.236c0.211,0.511-0.033,1.095-0.543,1.306
						C42.02,16.697,41.891,16.721,41.764,16.721z"/>
				</g>
				<g>
					<path style="fill:#FF8500;" d="M39.724,11.778c-0.393,0-0.766-0.232-0.925-0.618l-0.381-0.925
						c-0.211-0.51,0.032-1.095,0.543-1.306c0.509-0.212,1.095,0.033,1.306,0.543l0.381,0.924c0.211,0.511-0.032,1.095-0.543,1.306
						C39.981,11.753,39.851,11.778,39.724,11.778z"/>
				</g>
			</g>
			<g>
				<g>
					<g>
						<path style="fill:#FF8500;" d="M57.176,29.353c-0.32,0-0.634-0.152-0.827-0.437l-0.563-0.826
							c-0.311-0.457-0.193-1.079,0.263-1.39c0.458-0.31,1.079-0.193,1.389,0.263l0.563,0.826c0.311,0.457,0.193,1.079-0.263,1.39
							C57.566,29.296,57.37,29.353,57.176,29.353z"/>
					</g>
					<g>
						<path style="fill:#FF8500;" d="M54.206,24.991c-0.32,0-0.634-0.153-0.828-0.438l-0.803-1.179
							c-0.311-0.456-0.193-1.078,0.264-1.389c0.457-0.312,1.079-0.192,1.39,0.264l0.803,1.179c0.311,0.456,0.193,1.078-0.264,1.389
							C54.595,24.935,54.4,24.991,54.206,24.991z"/>
					</g>
					<g>
						<path style="fill:#FF8500;" d="M50.995,20.276c-0.32,0-0.634-0.153-0.828-0.438l-0.803-1.179
							c-0.311-0.456-0.193-1.078,0.264-1.389c0.458-0.312,1.079-0.192,1.39,0.264l0.803,1.179c0.311,0.456,0.193,1.078-0.264,1.389
							C51.384,20.22,51.189,20.276,50.995,20.276z M47.784,15.561c-0.32,0-0.634-0.153-0.828-0.438l-0.803-1.179
							c-0.311-0.456-0.193-1.078,0.264-1.389c0.457-0.312,1.079-0.192,1.39,0.264l0.803,1.179c0.311,0.456,0.193,1.078-0.264,1.389
							C48.174,15.505,47.978,15.561,47.784,15.561z"/>
					</g>
					<g>
						<path style="fill:#FF8500;" d="M44.573,10.847c-0.32,0-0.634-0.153-0.828-0.437l-0.563-0.827
							c-0.311-0.457-0.193-1.079,0.264-1.39c0.458-0.311,1.078-0.193,1.39,0.264l0.563,0.827c0.311,0.457,0.193,1.079-0.264,1.39
							C44.963,10.791,44.767,10.847,44.573,10.847z"/>
					</g>
				</g>
			</g>
		</g>
		<g>
			<g>
				<path style="fill:#FF8500;stroke:#FFFFFF;stroke-width:0.2;stroke-miterlimit:10;" d="M28.676,20.187
					c-6.581,0-11.917,5.335-11.917,11.917c0,6.581,5.335,11.917,11.917,11.917c6.581,0,11.917-5.335,11.917-11.917
					C40.592,25.522,35.257,20.187,28.676,20.187z M28.676,40.52c-4.602,0-8.333-3.731-8.333-8.333c0-4.602,3.731-8.333,8.333-8.333
					c4.602,0,8.333,3.731,8.333,8.333C37.009,36.789,33.278,40.52,28.676,40.52z"/>
				<circle style="fill:#FF8500;" cx="28.676" cy="32.187" r="8.15"/>
			</g>
			<g>
				<circle style="fill:#FF8500;stroke:#FFFFFF;stroke-width:0.2;stroke-miterlimit:10;" cx="40.676" cy="32.103" r="11.917"/>
				<circle style="fill:#FF8500;stroke:#FFFFFF;stroke-width:0.2;stroke-miterlimit:10;" cx="40.676" cy="32.187" r="8.333"/>
			</g>
		</g>
	</g>
	<path style="fill:#FF8500;" d="M276.921,52.223"/>
</g>
<g id="Layer_2">
</g>
<g id="Layer_3">
</g>
<g id="Layer_4">
</g>
</svg>
